Coordinates
version=1
nRows=8
nColumns=40
inDegrees=yes

Units are S.I. units (second, meters, Newtons, ...)
If the header above contains a line with 'inDegrees', this indicates whether rotational values are in degrees (yes) or radians (no).

endheader
time	pelvis_tilt	pelvis_list	pelvis_rotation	pelvis_tx	pelvis_ty	pelvis_tz	hip_flexion_r	hip_adduction_r	hip_rotation_r	knee_angle_r	knee_angle_r_beta	ankle_angle_r	subtalar_angle_r	mtp_angle_r	hip_flexion_l	hip_adduction_l	hip_rotation_l	knee_angle_l	knee_angle_l_beta	ankle_angle_l	subtalar_angle_l	mtp_angle_l	lumbar_extension	lumbar_bending	lumbar_rotation	arm_flex_r	arm_add_r	arm_rot_r	elbow_flex_r	pro_sup_r	wrist_flex_r	wrist_dev_r	arm_flex_l	arm_add_l	arm_rot_l	elbow_flex_l	pro_sup_l	wrist_flex_l	wrist_dev_l
      3.78500000	    -36.72788357	      4.70232253	     -6.57988214	     -0.40713317	      0.64912025	     -0.90044652	    104.72876954	    -18.52770421	      9.43862858	     96.00994872	      1.67568972	     28.53954692	      0.00000000	      0.00000000	    102.22019677	    -29.13044826	      2.58981090	     98.04101282	      1.71113848	     36.03512160	      0.00000000	      0.00000000	    -17.07495466	     -4.36775792	      4.69703132	     17.69315415	    -52.86077437	     89.60265199	     89.17344470	     88.73528727	      0.00000000	      0.00000000	     21.04320783	    -56.39595091	     89.63620687	     95.47799083	     88.53966199	      0.00000000	      0.00000000
      3.79000000	    -36.78557048	      4.70943019	     -6.58012830	     -0.40601427	      0.65173312	     -0.90020694	    104.39922672	    -18.45868740	      9.35516693	     95.64810084	      1.66937428	     28.53803177	      0.00000000	      0.00000000	    101.83198603	    -29.01870740	      2.45863189	     97.62062721	      1.70380136	     36.03750661	      0.00000000	      0.00000000	    -16.73783452	     -4.35994320	      4.74255571	     17.64219030	    -52.76681153	     89.59969444	     88.98174050	     88.73059735	      0.00000000	      0.00000000	     21.11706509	    -56.33436265	     89.63506060	     95.38479316	     88.53002880	      0.00000000	      0.00000000
      3.79500000	    -36.82911303	      4.71134665	     -6.56709956	     -0.40489063	      0.65441689	     -0.90004503	    104.05244844	    -18.40231283	      9.28482385	     95.28912782	      1.66310902	     28.51647522	      0.00000000	      0.00000000	    101.43308023	    -28.89275202	      2.32730711	     97.20975297	      1.69663025	     36.04961996	      0.00000000	      0.00000000	    -16.40839141	     -4.34412951	      4.78416307	     17.59576240	    -52.69895722	     89.59591412	     88.78199733	     88.72558674	      0.00000000	      0.00000000	     21.13953083	    -56.25725749	     89.63315477	     95.19097983	     88.52277629	      0.00000000	      0.00000000
      3.80000000	    -36.86341817	      4.71567991	     -6.57501382	     -0.40365162	      0.65697031	     -0.89975891	    103.72579755	    -18.34042798	      9.21062991	     94.98294462	      1.65776512	     28.49170370	      0.00000000	      0.00000000	    101.04508190	    -28.77174128	      2.25244918	     96.84312565	      1.69023140	     36.02241769	      0.00000000	      0.00000000	    -16.04700590	     -4.34282293	      4.83148361	     17.47853917	    -52.64363571	     89.59765072	     88.67195525	     88.72723316	      0.00000000	      0.00000000	     21.09363686	    -56.23678711	     89.63186192	     95.13271196	     88.52374259	      0.00000000	      0.00000000
      3.80500000	    -36.89036918	      4.72356568	     -6.57028663	     -0.40248388	      0.65993583	     -0.89959020	    103.31683591	    -18.28385305	      9.11243412	     94.52807669	      1.64982617	     28.49559497	      0.00000000	      0.00000000	    100.56360537	    -28.60564848	      2.11574261	     96.33830227	      1.68142057	     36.02294183	      0.00000000	      0.00000000	    -15.69182998	     -4.34000957	      4.88902746	     17.52679448	    -52.53622129	     89.58646232	     88.43885178	     88.71044387	      0.00000000	      0.00000000	     21.24405901	    -56.14522364	     89.62346342	     95.02075136	     88.50558536	      0.00000000	      0.00000000
      3.81000000	    -36.64753067	      4.82171312	     -6.59707711	     -0.40051997	      0.66345145	     -0.89934760	    102.67278271	    -18.26551216	      9.12335317	     94.17255439	      1.64362114	     28.60871362	      0.00000000	      0.00000000	     99.65678681	    -28.51544309	      1.78498196	     95.88228576	      1.67346158	     36.28817125	      0.00000000	      0.00000000	    -15.61118798	     -4.46993069	      4.93009012	     17.46859199	    -52.32819340	     89.57556701	     87.91569829	     88.69694526	      0.00000000	      0.00000000	     21.33332042	    -55.98921847	     89.62198016	     94.65546156	     88.49446476	      0.00000000	      0.00000000
      3.81500000	    -36.67293712	      4.83060030	     -6.59984707	     -0.39930382	      0.66622707	     -0.89911444	    102.30929783	    -18.20110674	      9.05550826	     93.79868128	      1.63709582	     28.57046031	      0.00000000	      0.00000000	     99.23227267	    -28.38134737	      1.67428592	     95.45464853	      1.66599790	     36.19047703	      0.00000000	      0.00000000	    -15.20873199	     -4.47203436	      4.96503820	     17.46781584	    -52.27324071	     89.57308811	     87.83639769	     88.69061235	      0.00000000	      0.00000000	     21.36844572	    -55.99509672	     89.61712802	     94.68794145	     88.48748219	      0.00000000	      0.00000000
      3.82000000	    -36.70983515	      4.83888459	     -6.60350601	     -0.39783457	      0.66902190	     -0.89891668	    101.94695115	    -18.15275430	      8.97686435	     93.44974836	      1.63100579	     28.52815028	      0.00000000	      0.00000000	     98.82509802	    -28.25026309	      1.59221442	     95.07937217	      1.65944810	     36.10647752	      0.00000000	      0.00000000	    -14.77769217	     -4.46093925	      5.02590670	     17.32177078	    -52.22092213	     89.57903830	     87.73988394	     88.69165099	      0.00000000	      0.00000000	     21.30357760	    -55.95909037	     89.61533696	     94.68012310	     88.48150822	      0.00000000	      0.00000000
